<?xml version="1.0" standalone="no"?>
<!DOCTYPE svg PUBLIC "-//W3C//DTD SVG 20010904//EN"
 "http://www.w3.org/TR/2001/REC-SVG-20010904/DTD/svg10.dtd">
<svg version="1.0" xmlns="http://www.w3.org/2000/svg"
 width="300.000000pt" height="300.000000pt" viewBox="0 0 300.000000 300.000000"
 preserveAspectRatio="xMidYMid meet">
<metadata>
Created by potrace 1.11, written by Peter Selinger 2001-2013
</metadata>
<g transform="translate(0.000000,300.000000) scale(0.100000,-0.100000)"
fill="#000000" stroke="none">
<path d="M2140 2735 l-211 -266 -52 30 c-110 62 -126 69 -198 94 -68 22 -177
47 -273 62 l-39 6 6 47 c3 26 9 70 12 97 l5 50 -15 -60 c-9 -33 -20 -76 -25
-96 l-10 -36 -117 -6 c-165 -8 -291 -37 -408 -92 -30 -15 -63 -25 -72 -23 -12
2 -40 67 -97 225 -44 122 -82 221 -84 219 -2 -2 21 -86 52 -187 30 -101 61
-208 70 -236 l15 -53 -57 -37 c-237 -155 -396 -357 -480 -608 -47 -144 -57
-213 -56 -400 0 -178 17 -280 64 -402 26 -66 25 -46 -5 72 -46 183 -30 416 42
619 61 171 148 304 282 434 100 97 261 206 261 177 0 -3 16 -58 36 -123 20
-64 43 -143 51 -174 l15 -57 -36 -31 c-46 -41 -121 -141 -153 -205 -14 -27
-27 -52 -29 -54 -2 -2 -51 27 -110 65 -137 88 -138 89 -131 77 4 -6 50 -45
104 -88 54 -43 103 -83 110 -89 9 -9 8 -23 -2 -65 -8 -29 -17 -93 -21 -142
l-7 -89 -76 -1 -76 -1 50 -10 c28 -5 64 -11 82 -14 28 -4 32 -9 38 -47 18
-104 100 -260 174 -331 l31 -30 -49 -90 c-26 -50 -86 -163 -132 -251 -46 -88
-136 -261 -201 -385 -94 -181 -114 -226 -100 -229 9 -2 18 1 19 6 2 6 25 43
52 84 27 41 108 168 181 284 73 116 175 278 228 362 l96 152 45 -24 c25 -12
65 -28 87 -35 l41 -12 7 -67 c3 -36 6 -183 7 -326 l1 -260 33 315 c18 173 33
315 34 315 1 0 76 0 168 0 l167 0 134 -155 c73 -85 143 -166 155 -180 13 -14
62 -71 111 -127 48 -57 90 -103 92 -103 2 0 -42 63 -99 141 -56 78 -109 151
-117 163 -8 11 -57 78 -107 148 -51 70 -93 132 -93 138 0 5 6 10 14 10 8 0 53
16 100 36 l86 36 0 59 c0 32 2 59 4 59 3 0 119 -43 258 -96 139 -53 386 -146
548 -206 162 -60 324 -120 360 -133 70 -26 93 -28 33 -2 -21 9 -114 49 -208
90 -93 42 -199 87 -235 102 -36 15 -100 43 -142 62 l-77 35 35 70 c52 104 89
211 109 318 10 52 19 100 20 106 3 11 26 13 305 34 205 15 230 19 230 36 0 15
-35 15 -412 -1 l-118 -6 0 53 c0 97 -48 345 -84 438 -5 12 46 43 221 135 406
211 388 201 391 229 2 14 1 26 -1 26 -2 0 -116 -55 -253 -121 -137 -67 -282
-136 -322 -155 l-73 -33 -17 30 c-46 84 -147 214 -235 302 -63 62 -95 102 -90
110 4 6 55 77 113 157 58 80 112 155 120 167 8 12 50 69 92 127 l78 106 -29 0
c-26 0 -51 -27 -241 -265z m-841 -257 c0 -13 -15 -90 -33 -173 l-32 -149 -34
-7 c-130 -26 -192 -43 -238 -69 l-53 -29 -8 22 c-52 140 -111 306 -111 314 0
6 8 13 18 16 9 3 51 17 92 32 106 38 232 63 323 64 74 1 77 0 76 -21z m227 -4
c33 -7 80 -21 105 -29 60 -21 199 -87 199 -94 0 -3 -28 -40 -61 -81 -120 -148
-139 -172 -147 -186 -7 -12 -20 -10 -82 12 -41 14 -113 34 -160 43 -47 10 -84
22 -84 27 1 5 12 79 24 164 12 85 24 159 27 164 6 9 92 0 179 -20z m431 -203
c63 -46 181 -169 235 -246 l49 -70 -173 -85 c-443 -218 -721 -351 -724 -347
-2 2 38 60 89 130 104 142 163 225 177 247 12 20 29 -3 71 -97 23 -52 38 -73
51 -73 22 0 21 -4 7 180 l-12 146 89 122 c49 67 92 122 95 122 3 0 24 -13 46
-29z m-777 -368 c-17 -81 -41 -194 -53 -250 -11 -57 -24 -103 -28 -103 -7 0
-10 7 -72 180 -80 222 -75 196 -43 229 49 51 214 125 224 100 2 -4 -11 -74
-28 -156z m297 128 c34 -17 63 -35 63 -42 0 -6 -24 -40 -52 -75 -29 -35 -102
-126 -163 -203 -60 -77 -111 -138 -113 -136 -3 3 44 335 65 459 l6 39 65 -6
c41 -4 89 -18 129 -36z m823 -198 c55 -121 85 -228 96 -334 l7 -67 -239 -6
c-132 -4 -274 -9 -316 -12 -62 -4 -78 -2 -78 9 0 24 44 56 88 63 32 5 42 11
42 25 0 18 -10 19 -142 19 -78 0 -138 3 -134 7 8 8 638 341 648 342 4 1 17
-20 28 -46z m-1340 -162 c58 -190 59 -196 28 -180 -73 38 -168 105 -168 119 0
51 77 261 86 235 2 -5 26 -84 54 -174z m-16 -267 c-5 -2 -35 -4 -66 -6 -66 -5
-68 -2 -68 73 l0 49 71 -57 c39 -32 67 -58 63 -59z m586 46 c38 -38 27 -45
-77 -48 l-98 -2 65 35 c77 40 84 41 110 15z m867 -172 c-8 -105 -32 -210 -74
-319 -24 -61 -33 -73 -48 -71 -11 2 -131 52 -267 110 l-248 107 0 102 c0 57 1
103 3 104 3 1 598 56 621 58 18 1 19 -5 13 -91z m-1444 26 c24 -7 22 -13 -22
-95 -34 -62 -40 -69 -49 -53 -12 22 -52 143 -52 157 0 8 81 2 123 -9z m605
-83 l-3 -29 -70 32 c-38 18 -81 37 -95 43 -22 9 -14 11 55 17 44 4 87 8 95 9
16 3 23 -25 18 -72z m-183 -53 c28 -10 80 -30 118 -44 l67 -26 0 -82 0 -82
-34 -17 -34 -16 -79 110 c-43 60 -88 124 -100 141 -27 37 -29 53 -5 43 9 -4
40 -16 67 -27z m-303 -132 c2 -67 -1 -102 -7 -98 -30 17 -85 65 -85 74 0 16
70 128 80 128 5 0 10 -47 12 -104z m264 -69 c59 -68 72 -88 59 -93 -25 -10
-198 1 -221 14 -19 10 -20 16 -13 74 5 35 11 90 15 123 l6 60 39 -45 c22 -25
74 -84 115 -133z"/>
<path d="M1391 2884 c0 -11 3 -14 6 -6 3 7 2 16 -1 19 -3 4 -6 -2 -5 -13z"/>
</g>
</svg>
